<?xml version="1.0" encoding="UTF-8" standalone="no"?>
<svg
   xmlns:dc="http://purl.org/dc/elements/1.1/"
   xmlns:cc="http://creativecommons.org/ns#"
   xmlns:rdf="http://www.w3.org/1999/02/22-rdf-syntax-ns#"
   xmlns:svg="http://www.w3.org/2000/svg"
   xmlns="http://www.w3.org/2000/svg"
   xmlns:sodipodi="http://sodipodi.sourceforge.net/DTD/sodipodi-0.dtd"
   xmlns:inkscape="http://www.inkscape.org/namespaces/inkscape"
   viewBox="0 0 78 78"
   version="1.1"
   id="body"
   sodipodi:docname="Og-kanji-h.svg"
   inkscape:version="1.0 (4035a4fb49, 2020-05-01)">
  <defs
     id="defs839" />
  <sodipodi:namedview
     inkscape:document-rotation="0"
     pagecolor="#ffffff"
     bordercolor="#666666"
     borderopacity="1"
     objecttolerance="10"
     gridtolerance="10"
     guidetolerance="10"
     inkscape:pageopacity="0"
     inkscape:pageshadow="2"
     inkscape:window-width="2001"
     inkscape:window-height="1246"
     id="namedview837"
     showgrid="false"
     inkscape:zoom="12.345803"
     inkscape:cx="25.440882"
     inkscape:cy="37.522079"
     inkscape:window-x="527"
     inkscape:window-y="118"
     inkscape:window-maximized="0"
     inkscape:current-layer="text845" />
  <metadata
     id="metadata5">
    <rdf:RDF>
      <cc:Work
         rdf:about="">
        <dc:format>image/svg+xml</dc:format>
        <dc:type
           rdf:resource="http://purl.org/dc/dcmitype/StillImage" />
        <dc:title></dc:title>
      </cc:Work>
    </rdf:RDF>
  </metadata>
  <g
     inkscape:label="レイヤー 1"
     inkscape:groupmode="layer"
     id="layer1"
     transform="translate(-0.47945598,-0.77486837)">
    <g
       id="text845"
       aria-label="氫">
      <path
         sodipodi:nodetypes="cccccccccccccccccccccccccccccccccscccccccccccccccccccccccccccccccccccccccccccccccccccccc"
         transform="translate(0.47945598,0.77486837)"
         d="M 16.839844,0.83398438 C 13.743092,10.044837 7.7876502,19.015875 0.72070312,24.335938 c 2.77913648,1.508673 7.78126988,4.844305 10.08398488,6.75 l 2.222656,-2.222657 v 3.333985 h 10.683961 c -0.180854,0.512963 -0.381268,1.045725 -0.599257,1.580078 H 7.7152681 v 24.65706 h 8.6252189 v -3.295732 c 1.314916,1.038406 2.485433,2.995262 3.243567,4.042969 2.101633,-1.085822 4.011115,-2.557785 5.612467,-4.19336 v 2.185547 h 6.213802 v -2.273437 c 2.787914,1.298839 4.780319,3.128463 6.181406,4.138671 L 40.071985,54.625 c -1.601241,-1.058312 -2.597603,-2.047309 -3.982582,-2.839844 h 3.549298 v -4.90625 h -2.008502 l 1.615709,-2.285156 -3.670779,-0.605469 c 1.359601,-0.163698 2.551923,-0.352457 3.863126,-0.583984 l -2.340552,-3.519531 h 3.29621 v 18.549638 h 8.993713 V 33.777344 H 33.020919 l 0.959805,-1.580078 h 18.589588 c 0.317617,24.694613 2.620943,44.228515 15.484376,44.228515 6.511116,0 8.654505,-4.763639 9.36914,-15.800781 -2.223309,-1.508674 -4.922501,-4.368626 -7.066406,-7.068359 -0.0794,7.146351 -0.477516,11.673828 -1.509766,11.673828 -4.446619,0.0794 -5.478445,-18.660765 -5.240234,-40.814453 H 16.839844 c 1.746886,-2.143906 3.335076,-4.526761 4.84375,-6.988282 v 5.003907 H 67.816406 V 16.158203 H 22.476562 l 1.033204,-1.826172 H 73.453125 V 7.1054688 H 27.001953 L 28.353516,3.6914062 Z M 16.34049,39.884766 h 15.375566 c -4.380815,0.420606 -9.648343,0.675832 -14.294377,0.777343 0.450351,0.962102 0.95132,3.127742 1.101437,4.089844 h 2.306132 l -3.02895,0.443359 1.259363,1.683594 h -1.739217 v 4.90625 h 3.776064 c -1.939102,1.631149 -2.366283,2.272033 -4.756018,3.097656 z m 16.679472,4.355468 c -0.2778,0.819853 -0.69362,1.872636 -1.012349,2.638672 h -0.597287 v -2.511718 c 0.595828,-0.0398 1.093391,-0.08409 1.609636,-0.126954 z m -7.823438,0.416016 v 2.222656 h -0.554767 c -0.150116,-0.673473 -0.733521,-1.406099 -1.133832,-2.175781 z m -1.812106,13.25 -0.516298,1.316406 H 4.1902668 v 6.875 H 19.130522 c -2.425492,2.286226 -5.607685,2.537576 -15.9951235,3.310547 1.2654747,1.449322 2.9532628,5.288158 3.4278157,7.027344 12.9711158,-1.304389 19.0354588,-3.815983 21.9882328,-7.970703 3.954608,5.169246 9.808335,7.439402 20.56487,8.164062 0.896379,-2.077361 2.793445,-5.882311 4.428017,-7.476562 -8.858322,-0.04832 -11.574508,-0.495663 -16.001198,-3.054688 h 15.104257 v -6.875 H 32.459117 L 32.67171,57.90625 Z"
         id="path851" />
    </g>
  </g>
</svg>
