<?xml version="1.0" encoding="UTF-8" standalone="no"?>
<svg
   xmlns:dc="http://purl.org/dc/elements/1.1/"
   xmlns:cc="http://creativecommons.org/ns#"
   xmlns:rdf="http://www.w3.org/1999/02/22-rdf-syntax-ns#"
   xmlns:svg="http://www.w3.org/2000/svg"
   xmlns="http://www.w3.org/2000/svg"
   xmlns:sodipodi="http://sodipodi.sourceforge.net/DTD/sodipodi-0.dtd"
   xmlns:inkscape="http://www.inkscape.org/namespaces/inkscape"
   id="body"
   version="1.1"
   viewBox="0 0 78.000002 78.000003"
   sodipodi:docname="Ts-kanji-l.svg"
   inkscape:version="1.0 (4035a4fb49, 2020-05-01)">
  <defs
     id="defs881" />
  <sodipodi:namedview
     inkscape:document-rotation="0"
     pagecolor="#ffffff"
     bordercolor="#666666"
     borderopacity="1"
     objecttolerance="10"
     gridtolerance="10"
     guidetolerance="10"
     inkscape:pageopacity="0"
     inkscape:pageshadow="2"
     inkscape:window-width="1860"
     inkscape:window-height="1263"
     id="namedview879"
     showgrid="false"
     inkscape:zoom="9.5753948"
     inkscape:cx="45.133509"
     inkscape:cy="49.542955"
     inkscape:window-x="377"
     inkscape:window-y="98"
     inkscape:window-maximized="0"
     inkscape:current-layer="text1457" />
  <metadata
     id="metadata862">
    <rdf:RDF>
      <cc:Work
         rdf:about="">
        <dc:format>image/svg+xml</dc:format>
        <dc:type
           rdf:resource="http://purl.org/dc/dcmitype/StillImage" />
        <dc:title></dc:title>
      </cc:Work>
    </rdf:RDF>
  </metadata>
  <g
     aria-label="矼"
     transform="scale(0.97993886,1.0204718)"
     id="text1446">
    <g
       aria-label="細"
       transform="matrix(0.96744714,0,0,0.93042036,4.0999823,4.4163326)"
       id="text1457">
      <path
         style="stroke-width:0.995628"
         d="M 55.584894,4.349001 V 34.00168 H 40.291101 V 4.349001 Z m 2.629509,0 H 74.780319 V 34.00168 H 58.214403 Z M 55.584894,36.550093 V 67.836719 H 40.291101 V 36.550093 Z m 2.629509,0 H 74.780319 V 67.836719 H 58.214403 Z M 37.528924,1.8005886 V 75.50611 h 2.762177 v -5.029532 h 34.489218 v 4.297965 h 2.54186 V 1.8005886 Z"
         id="path1462"
         sodipodi:nodetypes="ccccccccccccccccccccccccccccc" />
    </g>
    <g
       aria-label="矼"
       transform="scale(1.0204718,0.97993889)"
       id="text1453">
      <path
         d="M 2.1061889,7.7838921 V 10.213878 H 14.373244 C 11.902183,25.883098 7.7543295,40.463013 0.69415371,50.099163 1.4001713,50.518126 2.635702,51.27226 3.076963,51.60743 5.4597724,48.08814 7.4895729,44.066095 9.342869,39.625087 v 33.684631 h 2.647566 V 66.35493 H 32.284807 V 32.251336 H 11.990435 c 2.118053,-6.787201 3.794844,-14.160952 5.20688,-22.037458 H 35.108878 V 7.7838921 Z M 11.990435,34.681322 h 17.735059 v 29.15983 H 11.990435 Z"
         id="path1459"
         sodipodi:nodetypes="ccccccccccccccccccccc" />
    </g>
  </g>
</svg>
