<?xml version="1.0" encoding="UTF-8" standalone="no"?>
<svg
   xmlns:dc="http://purl.org/dc/elements/1.1/"
   xmlns:cc="http://creativecommons.org/ns#"
   xmlns:rdf="http://www.w3.org/1999/02/22-rdf-syntax-ns#"
   xmlns:svg="http://www.w3.org/2000/svg"
   xmlns="http://www.w3.org/2000/svg"
   xmlns:sodipodi="http://sodipodi.sourceforge.net/DTD/sodipodi-0.dtd"
   xmlns:inkscape="http://www.inkscape.org/namespaces/inkscape"
   viewBox="0 0 78 78"
   version="1.1"
   id="body"
   sodipodi:docname="Og-kanji-serif-h.svg"
   inkscape:version="1.0 (4035a4fb49, 2020-05-01)">
  <defs
     id="defs839" />
  <sodipodi:namedview
     inkscape:document-rotation="0"
     pagecolor="#ffffff"
     bordercolor="#666666"
     borderopacity="1"
     objecttolerance="10"
     gridtolerance="10"
     guidetolerance="10"
     inkscape:pageopacity="0"
     inkscape:pageshadow="2"
     inkscape:window-width="2001"
     inkscape:window-height="1246"
     id="namedview837"
     showgrid="false"
     inkscape:zoom="8.729801"
     inkscape:cx="36.755148"
     inkscape:cy="37.620558"
     inkscape:window-x="220"
     inkscape:window-y="37"
     inkscape:window-maximized="0"
     inkscape:current-layer="text2034" />
  <metadata
     id="metadata5">
    <rdf:RDF>
      <cc:Work
         rdf:about="">
        <dc:format>image/svg+xml</dc:format>
        <dc:type
           rdf:resource="http://purl.org/dc/dcmitype/StillImage" />
        <dc:title></dc:title>
      </cc:Work>
    </rdf:RDF>
  </metadata>
  <g
     inkscape:label="レイヤー 1"
     inkscape:groupmode="layer"
     id="layer1"
     transform="translate(-0.47945598,-0.77486837)">
    <g
       transform="matrix(0.84694749,0,0,0.85407319,43.053706,-63.638335)"
       id="text2034">
      <path
         sodipodi:nodetypes="cccccccccccccccccsscccccccccccccccccscccccccscccccccccccccccccsccccccccccccccccccccccsccsccccccccccccccccccccccccccccc"
         d="m -33.424298,76.507367 c -2.368576,12.213841 -8.528687,26.211943 -16.013389,33.916053 l 0.569601,0.65861 c 10.800712,-4.88554 19.800804,-12.965988 26.148591,-22.079394 h 40.833681 l -5.684478,6.95198 h -39.224039 l 0.7587,2.632147 h 44.055268 l -5.968124,6.483177 h -47.941006 l 0.853249,2.62986 h 14.488464 c -0.347166,2.14869 -0.885976,4.09868 -1.377818,6.93826 h -7.565906 l -11.783959,-3.89676 v 36.19603 h 3.1158 c 3.830247,0 8.295907,-1.90966 8.295907,-2.83339 v -2.03986 l 0.290067,0.42307 c 3.597363,-1.64446 6.156247,-3.3428 9.112929,-5.9412 v 6.43973 l -3.166563,-0.1738 c -0.172395,1.97015 -0.432783,3.28657 -0.949968,5.01045 h -23.352786 l 0.536624,2.59556 h 22.214274 c -2.672116,5.97201 -5.953026,9.44316 -22.953945,13.69129 l 0.403677,1.79059 c 25.198988,-3.20148 31.772581,-8.1554 34.875685,-15.48188 h 0.947551 c 4.9132479,9.7276 9.9374456,13.01919 21.0250021,15.48188 0.7391697,-4.24813 2.9577919,-8.48272 6.5192489,-9.6525 l -0.06768,-1.02221 c -10.9531613,0 -17.714779,0.85703 -24.6967621,-4.80717 H 15.982675 c 0.94076,0 1.611325,-0.71076 1.812916,-1.38799 -2.620695,-2.27799 -8.2731275,-7.2847 -8.2731275,-7.2847 l -4.7080653,6.07713 H -12.249456 c 0.258592,-0.98506 0.517336,-1.50089 0.775929,-2.54753 1.280816,-0.0899 2.1916478,-0.86217 2.3640431,-1.66253 l -9.4803461,-0.52369 c 3.233177,-0.12868 5.750572,-1.4501 5.750572,-1.82032 v -7.02058 c 1.881524,2.02803 2.820334,4.52573 3.3599391,7.02287 5.5159566,3.47164 11.5209888,-7.42375 -3.3599391,-8.37439 v -0.93074 h 8.3200791 c 0.7795928,-3e-5 1.3787656,-0.30423 1.4986785,-0.9742 -1.3789898,-1.27903 -3.7001595,-3.36403 -4.5395441,-4.03397 0.4796486,-0.24364 1.3835071,-0.75549 1.7766587,-1.01536 1.2449804,0.25987 2.0949504,-0.26006 2.2915274,-0.77981 l -7.0752106,-3.76871 c -0.411204,1.57265 -1.418434,4.64253 -2.272189,6.72101 v -6.59294 c 2.4863,-0.12674 3.049792,-0.25407 4.7885178,-0.43679 1.4989012,0.66997 3.2491318,1.24335 3.9086485,0.6952 l -4.4186832,-4.52565 h 5.6925596 v 29.06797 h 3.14964111 c 3.35986529,0 8.19728539,-1.97056 8.26448309,-2.52467 v -24.69782 c 1.4111443,-0.33553 2.0169391,-1.08979 2.4873221,-1.76087 l -9.3208095,-7.05031 -5.2526249,4.34956 H -16.006503 c 2.419104,-1.67763 5.644261,-2.42513 7.6601775,-3.5949 1.5455385,-0.12313 3.2307817,-0.55451 3.4995687,-1.72428 L -16.646384,107.6998 h 29.834792 c 0,8.3618 0.284013,16.72369 1.231444,24.52174 l 0.189099,1.31493 c 1.610631,11.93198 4.926618,22.17267 11.274403,27.99773 3.69498,3.75811 9.665258,6.48231 13.928697,2.44234 2.084349,-1.973 1.705009,-6.01255 -0.947798,-11.36786 l 0.756393,-14.46881 -0.850942,-0.18752 c -0.947429,3.38231 -2.08467,6.8578 -3.221587,9.30056 -0.473716,1.12743 -1.137455,1.31648 -1.990143,0.56485 -5.968815,-5.16739 -7.390217,-25.46214 -6.632274,-38.61551 1.894863,-0.28186 3.317279,-0.93835 3.885738,-1.68997 L 19.25108,98.586763 h 8.716967 c 1.326402,0 2.367758,-0.471257 2.651986,-1.504737 -3.316006,-2.818577 -8.147322,-6.388243 -10.421155,-8.07939 h 16.202487 c 1.421146,0 2.462307,-0.468971 2.746536,-1.502451 C 34.316004,83.36627 26.736602,77.916057 26.736602,77.916057 l -6.915921,8.456718 H -20.91845 c 0.852687,-1.409289 1.704943,-2.81907 2.462888,-4.228359 2.558064,0.09396 3.315555,-0.375211 3.599785,-1.40869 z m 3.560542,40.746833 h 17.02208 c -4.892052,1.5697 -10.828897,3.13661 -16.712675,4.10259 l 0.304571,1.39725 c 2.105418,-0.14225 5.227561,-0.31008 8.78902,-0.43678 v 4.1163 c -0.469639,-1.38821 -2.435235,-2.87675 -6.915675,-3.67952 l -0.717914,0.30415 c 1.0078,1.33993 1.942384,3.65603 1.798413,5.60503 2.401293,1.84415 5.258925,0.81186 5.835176,-0.92159 v 2.13819 h -8.982398 l 0.478609,2.0856 h 5.163187 c -1.51462,3.55064 -3.113736,6.47124 -6.062394,9.09245 z m 21.22563,10.19014 -1.858844,2.43548 h -2.342288 v -0.85299 l 0.302153,0.18295 c 1.259077,-0.54813 2.639902,-1.15637 3.898979,-1.76544 z"
         style="font-weight:900;font-size:62.166px;line-height:1.25;font-family:'Source Han Serif';-inkscape-font-specification:'Source Han Serif Heavy';stroke-width:0.458036"
         id="path861" />
    </g>
  </g>
</svg>
