<?xml version="1.0" encoding="UTF-8" standalone="no"?>
<svg
   xmlns:dc="http://purl.org/dc/elements/1.1/"
   xmlns:cc="http://creativecommons.org/ns#"
   xmlns:rdf="http://www.w3.org/1999/02/22-rdf-syntax-ns#"
   xmlns:svg="http://www.w3.org/2000/svg"
   xmlns="http://www.w3.org/2000/svg"
   xmlns:sodipodi="http://sodipodi.sourceforge.net/DTD/sodipodi-0.dtd"
   xmlns:inkscape="http://www.inkscape.org/namespaces/inkscape"
   inkscape:version="1.0 (4035a4fb49, 2020-05-01)"
   sodipodi:docname="Og-kanji-sans-l.svg"
   id="body"
   version="1.1"
   viewBox="0 0 78 78">
  <defs
     id="defs839" />
  <sodipodi:namedview
     inkscape:current-layer="layer1"
     inkscape:window-maximized="0"
     inkscape:window-y="38"
     inkscape:window-x="217"
     inkscape:cy="51.260982"
     inkscape:cx="92.029036"
     inkscape:zoom="2.1824503"
     showgrid="false"
     id="namedview837"
     inkscape:window-height="1246"
     inkscape:window-width="2001"
     inkscape:pageshadow="2"
     inkscape:pageopacity="0"
     guidetolerance="10"
     gridtolerance="10"
     objecttolerance="10"
     borderopacity="1"
     bordercolor="#666666"
     pagecolor="#ffffff"
     inkscape:document-rotation="0" />
  <metadata
     id="metadata5">
    <rdf:RDF>
      <cc:Work
         rdf:about="">
        <dc:format>image/svg+xml</dc:format>
        <dc:type
           rdf:resource="http://purl.org/dc/dcmitype/StillImage" />
        <dc:title></dc:title>
      </cc:Work>
    </rdf:RDF>
  </metadata>
  <g
     transform="translate(-0.47945598,-0.77486837)"
     id="layer1"
     inkscape:groupmode="layer"
     inkscape:label="レイヤー 1">
    <path
       sodipodi:nodetypes="ccccccccsccsccccccccccccccccsscccccccccccccssccccsccccccccccscccccccccccccccccccccccccccccccccccccccccccsccccccc"
       transform="translate(0.47945598,0.77486837)"
       d="M 15.423828,0.89453125 C 12.997563,11.165721 7.2540411,23.055707 0.703125,29.6875 l 0.6464844,0.726562 C 9.6797871,26.046777 16.878654,19.010501 22.054688,11.408203 h 37.203124 l -4.771484,5.824219 H 19.224609 l 0.646485,2.345703 h 46.341797 c 1.132257,0 2.021045,-0.40529 2.263671,-1.294922 -2.992393,-2.588016 -7.521242,-5.985368 -8.734374,-6.875 h 13.58789 c 1.213133,0 1.940968,-0.403339 2.183594,-1.292969 C 71.874274,6.8802132 66.130859,2.59375 66.130859,2.59375 L 60.794922,9.0625 H 23.591797 c 0.808755,-1.2940089 1.454559,-2.5868505 2.101562,-3.8808594 2.102764,0.080872 2.749562,-0.2431816 2.992188,-1.1328125 z M 59.095703,20.0625 54.404297,25.238281 H 11.865234 l 0.726563,2.265625 h 14.546875 c -0.446287,1.936178 -1.191234,4.374535 -1.664063,6.109375 H 17.900391 L 8.7109375,31.091797 v 29.960937 h 1.2480469 c 3.2591516,0 7.3183596,-1.31321 7.3183596,-1.996093 V 35.785156 h 15.646484 c -4.466874,1.714183 -8.659531,2.962258 -14.605469,3.802735 l 0.160157,1.371093 c 2.839052,0 4.393141,-0.106087 8.257812,-0.263672 v 6.283204 h -8.740234 l 0.427734,1.880859 h 5.370609 c -1.660577,4.167402 -3.066456,5.784376 -6.173343,8.095703 l 0.507812,0.990234 c 3.535423,-1.57591 5.432871,-3.107359 8.607422,-5.576271 v 5.373147 h 1.105469 c 3.036528,0 5.037109,-1.049855 5.037109,-1.3125 v -5.935547 c 2.622455,1.628444 2.738928,4.258175 3.542434,6.359375 5.619358,2.745469 9.184013,-6.6732 -3.542434,-7.253907 v -0.740234 h 7.882813 c 0.768947,0 1.301066,-0.334841 1.478515,-1.074219 -2.001716,-1.575792 -4.15625,-3.195312 -4.15625,-3.195312 l -2.089843,2.388672 h -3.115235 v -6.597657 c 2.829492,-0.157585 3.490933,-0.315271 5.205078,-0.52539 1.232041,0.525298 2.204824,0.576488 2.855469,0.15625 l -3.037109,-4.226563 h 4.697265 v 24.794922 h 1.34375 c 3.061312,0 7.093303,-1.419606 7.167969,-1.839844 V 36.783203 c 1.56799,-0.210127 2.463664,-0.683277 2.986328,-1.103515 l -8.21289,-5.166016 -4.03125,3.099609 h -12.65625 c 1.832575,-1.10313 4.668159,-2.545108 6.228515,-3.595703 1.380316,-0.05253 2.220883,-0.41949 2.460938,-1.3125 L 30.53125,27.503906 h 24.763672 c 0.08087,18.843998 1.698599,38.171858 10.675781,46.097656 2.992394,2.911519 7.439248,5.015034 10.431641,2.103516 1.45576,-1.455759 1.051185,-4.206665 -0.970703,-8.007812 l 0.810547,-11.96875 -0.890626,-0.16211 c -0.647002,2.830637 -1.537306,5.742155 -2.507812,7.925782 -0.404377,0.970509 -0.889309,1.133331 -1.617188,0.486328 -5.58041,-4.771656 -6.873924,-23.049523 -6.388671,-35.261719 1.698385,-0.242626 2.830356,-0.810027 3.396484,-1.457031 z M 35.511719,40.298828 c -0.428537,1.470842 -1.659672,3.944248 -2.570313,5.677734 l 0.589844,0.367188 c 1.928413,-0.998079 5.163323,-2.327493 6.341797,-3.167969 1.017774,0.21011 1.714299,-0.263356 1.875,-0.683593 z m -15.560547,0.792969 -0.453125,0.423828 c 0.857071,1.208206 2.140848,1.689113 2.230469,4.34375 3.620314,2.731574 8.613916,-3.180839 -1.777344,-4.767578 z m 5.294922,16.703125 c -0.187434,1.628427 -0.468978,2.504212 -1.125,4.623047 H 3.3125 l 0.4589844,2.11914 H 23.371094 c -3.320602,6.159643 -5.742298,7.986344 -20.1738284,11.50586 l 0.4023438,1.1875 C 22.669688,74.68971 27.450364,73.144708 31.779297,64.537109 h 0.707031 c 2.596606,9.267844 9.710505,11.274712 19.732422,12.69336 0.515411,-2.941685 2.177475,-5.799941 4.697266,-6.587891 v -0.630859 c -9.792823,-0.315178 -17.100601,0.834706 -23.056641,-5.47461 h 22.253906 c 0.801751,0 1.37507,-0.378549 1.546875,-1.210937 -2.118916,-2.648548 -5.613281,-4.691406 -5.613281,-4.691406 l -3.035156,3.783203 H 32.236328 c 0.171803,-1.210769 0.343822,-1.681208 0.515625,-2.574219 1.317164,-0.157593 1.891325,-0.735078 2.005859,-1.417969 z"
       id="path868" />
  </g>
</svg>
