<?xml version="1.0" encoding="UTF-8"?>
<svg version="1.1" viewBox="0 0 109.44 104.5" xmlns="http://www.w3.org/2000/svg" xmlns:cc="http://creativecommons.org/ns#" xmlns:dc="http://purl.org/dc/elements/1.1/" xmlns:rdf="http://www.w3.org/1999/02/22-rdf-syntax-ns#">
 <metadata>
  <rdf:RDF>
   <cc:Work rdf:about="">
    <dc:format>image/svg+xml</dc:format>
    <dc:type rdf:resource="http://purl.org/dc/dcmitype/StillImage"/>
    <dc:title/>
   </cc:Work>
  </rdf:RDF>
 </metadata>
 <g transform="translate(-10.467 -4.4764)">
  <path transform="rotate(.39245 65.201 61.89)" d="m119.63 43.706c2.2686 6.8057-19.664 21.623-21.829 28.462-2.165 6.8393 7.2459 31.578 1.4744 35.839-5.7716 4.2606-26.641-12.019-33.815-11.965-7.1736 0.054458-27.794 16.65-33.629 12.477-5.8356-4.1725 3.1987-29.051 0.93011-35.857-2.2686-6.8057-24.423-21.288-22.258-28.128 2.165-6.8393 28.618-5.9352 34.39-10.196s12.699-29.806 19.873-29.861c7.1736-0.054458 14.488 25.383 20.324 29.556s32.272 2.8669 34.54 9.6726z" fill="#eec58f"/>
 </g>
</svg>
